# xmcd CD database file
#
# Track frame offsets:
#	151
#	22935
#	43113
#	72193
#	94677
#	132157
#	156595
#	171729
#	192633
#	216611
#
# Disc length: 3162 seconds
#
# Revision: 0
# Processed by: cddbd v1.5.1PL0 Copyright (c) Steve Scherf et al.
# Submitted via: CDex 1.51
#
DISCID=9b0c580a
DTITLE=George Whitaker - Journeys
DYEAR=1900
DGENRE=New Age
TTITLE0=Canyon Ridge
TTITLE1=Ixtlan
TTITLE2=Panama Barge (The Isthmus)
TTITLE3=Christo Del Corcovado
TTITLE4=Ganges Dream
TTITLE5=Serengeti Dawn
TTITLE6=At The Fairy Brook
TTITLE7=Elegy for Ehime
TTITLE8=Autumn In Baroque
TTITLE9=Rainbow's End
EXTD=
EXTT0=
EXTT1=
EXTT2=
EXTT3=
EXTT4=
EXTT5=
EXTT6=
EXTT7=
EXTT8=
EXTT9=
PLAYORDER=
